<svg xmlns="http://www.w3.org/2000/svg" viewBox="0 0 128 128">
  <defs>
    <linearGradient id="g" x1="0" x2="1" y1="0" y2="1">
      <stop offset="0" stop-color="#f08c2a"/>
      <stop offset="1" stop-color="#c23a3a"/>
    </linearGradient>
  </defs>
  <rect x="8" y="8" width="112" height="112" rx="28" fill="#2a1612"/>
  <path d="M64 22c22 10 34 30 34 54 0 24-14 38-34 48-20-10-34-24-34-48 0-24 12-44 34-54z" fill="url(#g)"/>
  <path d="M64 40c12 6 18 18 18 34 0 16-8 25-18 31-10-6-18-15-18-31 0-16 6-28 18-34z" fill="#2a1612" opacity="0.7"/>
  <circle cx="64" cy="74" r="6" fill="#f6efe8"/>
</svg>
